<?xml version="1.0" encoding="UTF-8"?>
<svg id="Layer_1" xmlns="http://www.w3.org/2000/svg" xmlns:bx="https://boxy-svg.com" version="1.1" viewBox="0 0 462.6 462.6">
  <!-- Generator: Adobe Illustrator 29.2.1, SVG Export Plug-In . SVG Version: 2.1.0 Build 116)  -->
  <defs>
    <style>
      .st0 {
        display: none;
      }
    </style>
  </defs>
  <g id="_x3C_defs" class="st0">
    <bx:export>
      <bx:file format="svg"/>
    </bx:export>
  </g>
  <path d="M0,0v462.6h462.6V0H0ZM222,351.7c-6.3-.5-12.6-1.5-18.6-2.9-6.4-1.5-12.6-3.5-18.6-6-6.3-2.6-12.3-5.7-17.9-9.3-.2-.1-.4-.3-.7-.4-6.7-4.3-12.9-9.2-18.6-14.7-1.2-1.1-2.4-2.3-3.5-3.5-5.5-5.7-10.4-11.9-14.7-18.6-.1-.2-.3-.4-.4-.6-3.6-5.7-6.7-11.7-9.3-18-2.5-6-4.5-12.2-6-18.6-1.4-6-2.4-12.3-2.9-18.6-.2-3.1-.3-6.2-.3-9.3s0-6.2.3-9.3c.5-6.3,1.5-12.6,2.9-18.6,1.5-6.4,3.5-12.6,6-18.6,2.6-6.3,5.7-12.3,9.3-18,.1-.2.3-.4.4-.6,4.3-6.7,9.2-12.9,14.7-18.6,1.2-1.2,2.3-2.4,3.5-3.5,5.7-5.5,11.9-10.4,18.6-14.7.2,0,.4-.3.7-.4,5.7-3.6,11.7-6.7,17.9-9.3,6-2.5,12.2-4.5,18.6-6,6-1.4,12.2-2.4,18.6-2.9h0v18.7c-6.4.6-12.6,1.7-18.6,3.4-6.5,1.8-12.7,4.3-18.6,7.3-4.3,2.2-8.4,4.7-12.3,7.4-2.2,1.5-4.3,3.1-6.3,4.8-5,4.2-9.7,8.8-13.8,13.8-1.7,2-3.3,4.1-4.8,6.3-2.8,3.9-5.3,8-7.5,12.3-3,5.9-5.5,12.1-7.3,18.6-1.7,6-2.9,12.2-3.4,18.6h56.3c1.4-6.9,4.3-13.2,8.4-18.6,2.6-3.5,5.8-6.7,9.3-9.3v74.4c-3.5-2.6-6.7-5.8-9.3-9.3-4.1-5.4-7-11.7-8.4-18.6h-56.3c.6,6.4,1.7,12.6,3.4,18.6,1.8,6.5,4.3,12.7,7.3,18.6,2.2,4.3,4.7,8.4,7.5,12.3,1.5,2.2,3.1,4.3,4.8,6.3,4.2,5,8.8,9.7,13.8,13.8,2,1.7,4.1,3.3,6.3,4.8,3.9,2.8,8,5.3,12.3,7.4,5.9,3,12.1,5.5,18.6,7.3,6,1.7,12.2,2.9,18.6,3.4v18.7ZM203.4,152.3h0v20.1c-6.6,3.1-12.5,7.3-17.7,12.3l-.9.9c-5,5.1-9.2,11.1-12.3,17.7h-20.1c2.3-6.6,5.5-12.9,9.3-18.6,1.4-2.1,2.9-4.1,4.5-6.1,3.7-4.6,7.9-8.8,12.5-12.5,2-1.6,4-3.1,6.1-4.5,5.7-3.8,12-6.9,18.6-9.3ZM240.6,314.6c-3.1.3-6.2.5-9.3.5s-6.2-.2-9.3-.5c-6.5-.7-12.7-2.2-18.6-4.3-6.6-2.3-12.9-5.5-18.6-9.3-2.1-1.4-4.2-2.9-6.1-4.5-4.6-3.7-8.8-7.9-12.5-12.5-1.6-2-3.1-4-4.5-6.1-3.8-5.7-7-12-9.3-18.6h20.1c3.1,6.6,7.3,12.5,12.3,17.7l.9.9c5.1,5,11.1,9.2,17.7,12.3,5.8,2.8,12,4.7,18.6,5.6v-147.7c3.1-.3,6.2-.5,9.3-.5s6.2.2,9.3.5c6.5.7,12.7,2.2,18.6,4.3,6.6,2.3,12.9,5.5,18.6,9.3,2.1,1.4,4.2,2.9,6.1,4.5,4.6,3.7,8.8,7.9,12.5,12.5,1.6,2,3.1,4,4.5,6.1,3.8,5.7,7,12,9.3,18.6h-20.1c-3.1-6.6-7.3-12.5-12.3-17.7-.3-.3-.6-.6-.9-.9-5.1-5-11.1-9.2-17.7-12.3-5.8-2.8-12-4.7-18.6-5.6v147.7ZM276.9,277.8l.9-.9c5-5.1,9.2-11.1,12.3-17.7h20.1c-2.3,6.6-5.5,12.9-9.3,18.6-1.4,2.1-2.9,4.1-4.5,6.1-3.7,4.6-7.9,8.8-12.5,12.5-2,1.6-4,3.1-6.1,4.5-5.7,3.8-12,7-18.6,9.3v-20.1c6.6-3.1,12.5-7.3,17.7-12.3ZM352.2,231.3h0c0,3.1,0,6.2-.3,9.3-.5,6.3-1.5,12.6-2.9,18.6-1.5,6.4-3.5,12.6-6,18.6-2.6,6.3-5.7,12.3-9.3,18-.1.2-.3.4-.4.6-4.3,6.7-9.2,12.9-14.7,18.6-1.2,1.2-2.3,2.4-3.5,3.5-5.7,5.5-11.9,10.4-18.6,14.7-.2,0-.4.3-.7.4-5.7,3.6-11.7,6.7-17.9,9.3-6,2.5-12.2,4.5-18.6,6-6,1.4-12.3,2.4-18.6,2.9v-18.7c6.4-.6,12.6-1.7,18.6-3.4,6.5-1.8,12.7-4.3,18.6-7.3,4.3-2.2,8.4-4.7,12.3-7.4,2.2-1.5,4.3-3.1,6.3-4.8,5-4.2,9.7-8.8,13.8-13.8,1.7-2,3.3-4.1,4.8-6.3,2.8-3.9,5.3-8,7.5-12.3,3-5.9,5.5-12.1,7.3-18.6,1.7-6,2.9-12.2,3.4-18.6h-56.3c-1.4,6.9-4.3,13.2-8.4,18.6-2.6,3.5-5.8,6.7-9.3,9.3v-74.4c3.5,2.6,6.7,5.8,9.3,9.3,4.1,5.4,7,11.7,8.4,18.6h56.3c-.6-6.4-1.7-12.6-3.4-18.6-1.8-6.5-4.3-12.7-7.3-18.6-2.2-4.3-4.7-8.4-7.5-12.3-1.5-2.2-3.1-4.3-4.8-6.3-4.2-5-8.8-9.7-13.8-13.8-2-1.7-4.1-3.3-6.3-4.8-3.9-2.8-8-5.3-12.3-7.4-5.9-3-12.1-5.5-18.6-7.3-6-1.7-12.2-2.9-18.6-3.4v-18.7c6.3.5,12.6,1.5,18.6,2.9,6.4,1.5,12.6,3.5,18.6,6,6.3,2.6,12.3,5.7,17.9,9.3.2.1.4.3.7.4,6.7,4.3,12.9,9.2,18.6,14.7,1.2,1.1,2.4,2.3,3.5,3.5,5.5,5.7,10.4,11.9,14.7,18.6.1.2.3.4.4.6,3.6,5.7,6.7,11.7,9.3,18,2.5,6,4.5,12.2,6,18.6,1.4,6,2.4,12.3,2.9,18.6.2,3.1.3,6.2.3,9.3h0Z"/>
</svg>